<svg xmlns="http://www.w3.org/2000/svg" width="1600" height="1000" viewBox="0 0 1600 1000">
<defs>
<style>
.title{font:700 40px "DejaVu Sans",sans-serif; fill:#e7eefc;}
.sub{font:400 22px "DejaVu Sans",sans-serif; fill:#9fb0c9;}
.cardtitle{font:700 24px "DejaVu Sans",sans-serif; fill:#e7eefc;}
.body{font:400 20px "DejaVu Sans",sans-serif; fill:#e7eefc;}
.small{font:400 16px "DejaVu Sans",sans-serif; fill:#9fb0c9;}
</style>
</defs>
<rect width="100%" height="100%" fill="#0b1020"/>
<rect x="24" y="24" width="1552" height="952" rx="24" fill="#121a2b" stroke="#2b3a57" stroke-width="2"/>
<text x="60" y="80" class="title">Palette examples</text>
<text x="60" y="120" class="sub">Compare mood, contrast, and accent direction before choosing a preset</text>
<rect x="60" y="170" width="700" height="180" rx="22" fill="#172033" stroke="#2b3a57" stroke-width="2"/>
<text x="84" y="210" class="cardtitle">Catppuccin Mocha</text>
<rect x="84" y="244" width="88" height="70" rx="14" fill="#1e1e2e" stroke="#000"/>
<text x="84" y="332" class="small">#1e1e2e</text>
<rect x="192" y="244" width="88" height="70" rx="14" fill="#cdd6f4" stroke="#000"/>
<text x="192" y="332" class="small">#cdd6f4</text>
<rect x="300" y="244" width="88" height="70" rx="14" fill="#89b4fa" stroke="#000"/>
<text x="300" y="332" class="small">#89b4fa</text>
<rect x="408" y="244" width="88" height="70" rx="14" fill="#f5c2e7" stroke="#000"/>
<text x="408" y="332" class="small">#f5c2e7</text>
<rect x="516" y="244" width="88" height="70" rx="14" fill="#fab387" stroke="#000"/>
<text x="516" y="332" class="small">#fab387</text>
<rect x="624" y="244" width="88" height="70" rx="14" fill="#313244" stroke="#000"/>
<text x="624" y="332" class="small">#313244</text>
<rect x="800" y="170" width="700" height="180" rx="22" fill="#172033" stroke="#2b3a57" stroke-width="2"/>
<text x="824" y="210" class="cardtitle">Nord</text>
<rect x="824" y="244" width="88" height="70" rx="14" fill="#2e3440" stroke="#000"/>
<text x="824" y="332" class="small">#2e3440</text>
<rect x="932" y="244" width="88" height="70" rx="14" fill="#d8dee9" stroke="#000"/>
<text x="932" y="332" class="small">#d8dee9</text>
<rect x="1040" y="244" width="88" height="70" rx="14" fill="#88c0d0" stroke="#000"/>
<text x="1040" y="332" class="small">#88c0d0</text>
<rect x="1148" y="244" width="88" height="70" rx="14" fill="#81a1c1" stroke="#000"/>
<text x="1148" y="332" class="small">#81a1c1</text>
<rect x="1256" y="244" width="88" height="70" rx="14" fill="#ebcb8b" stroke="#000"/>
<text x="1256" y="332" class="small">#ebcb8b</text>
<rect x="1364" y="244" width="88" height="70" rx="14" fill="#3b4252" stroke="#000"/>
<text x="1364" y="332" class="small">#3b4252</text>
<rect x="60" y="360" width="700" height="180" rx="22" fill="#172033" stroke="#2b3a57" stroke-width="2"/>
<text x="84" y="400" class="cardtitle">Gruvbox Dark</text>
<rect x="84" y="434" width="88" height="70" rx="14" fill="#282828" stroke="#000"/>
<text x="84" y="522" class="small">#282828</text>
<rect x="192" y="434" width="88" height="70" rx="14" fill="#ebdbb2" stroke="#000"/>
<text x="192" y="522" class="small">#ebdbb2</text>
<rect x="300" y="434" width="88" height="70" rx="14" fill="#458588" stroke="#000"/>
<text x="300" y="522" class="small">#458588</text>
<rect x="408" y="434" width="88" height="70" rx="14" fill="#b16286" stroke="#000"/>
<text x="408" y="522" class="small">#b16286</text>
<rect x="516" y="434" width="88" height="70" rx="14" fill="#d79921" stroke="#000"/>
<text x="516" y="522" class="small">#d79921</text>
<rect x="624" y="434" width="88" height="70" rx="14" fill="#3c3836" stroke="#000"/>
<text x="624" y="522" class="small">#3c3836</text>
<rect x="800" y="360" width="700" height="180" rx="22" fill="#172033" stroke="#2b3a57" stroke-width="2"/>
<text x="824" y="400" class="cardtitle">Dracula</text>
<rect x="824" y="434" width="88" height="70" rx="14" fill="#282a36" stroke="#000"/>
<text x="824" y="522" class="small">#282a36</text>
<rect x="932" y="434" width="88" height="70" rx="14" fill="#f8f8f2" stroke="#000"/>
<text x="932" y="522" class="small">#f8f8f2</text>
<rect x="1040" y="434" width="88" height="70" rx="14" fill="#bd93f9" stroke="#000"/>
<text x="1040" y="522" class="small">#bd93f9</text>
<rect x="1148" y="434" width="88" height="70" rx="14" fill="#ff79c6" stroke="#000"/>
<text x="1148" y="522" class="small">#ff79c6</text>
<rect x="1256" y="434" width="88" height="70" rx="14" fill="#ffb86c" stroke="#000"/>
<text x="1256" y="522" class="small">#ffb86c</text>
<rect x="1364" y="434" width="88" height="70" rx="14" fill="#44475a" stroke="#000"/>
<text x="1364" y="522" class="small">#44475a</text>
<rect x="60" y="550" width="700" height="180" rx="22" fill="#172033" stroke="#2b3a57" stroke-width="2"/>
<text x="84" y="590" class="cardtitle">Tokyo Night</text>
<rect x="84" y="624" width="88" height="70" rx="14" fill="#1a1b26" stroke="#000"/>
<text x="84" y="712" class="small">#1a1b26</text>
<rect x="192" y="624" width="88" height="70" rx="14" fill="#c0caf5" stroke="#000"/>
<text x="192" y="712" class="small">#c0caf5</text>
<rect x="300" y="624" width="88" height="70" rx="14" fill="#7aa2f7" stroke="#000"/>
<text x="300" y="712" class="small">#7aa2f7</text>
<rect x="408" y="624" width="88" height="70" rx="14" fill="#bb9af7" stroke="#000"/>
<text x="408" y="712" class="small">#bb9af7</text>
<rect x="516" y="624" width="88" height="70" rx="14" fill="#e0af68" stroke="#000"/>
<text x="516" y="712" class="small">#e0af68</text>
<rect x="624" y="624" width="88" height="70" rx="14" fill="#24283b" stroke="#000"/>
<text x="624" y="712" class="small">#24283b</text>
<rect x="800" y="550" width="700" height="180" rx="22" fill="#172033" stroke="#2b3a57" stroke-width="2"/>
<text x="824" y="590" class="cardtitle">Rose Pine</text>
<rect x="824" y="624" width="88" height="70" rx="14" fill="#191724" stroke="#000"/>
<text x="824" y="712" class="small">#191724</text>
<rect x="932" y="624" width="88" height="70" rx="14" fill="#e0def4" stroke="#000"/>
<text x="932" y="712" class="small">#e0def4</text>
<rect x="1040" y="624" width="88" height="70" rx="14" fill="#31748f" stroke="#000"/>
<text x="1040" y="712" class="small">#31748f</text>
<rect x="1148" y="624" width="88" height="70" rx="14" fill="#c4a7e7" stroke="#000"/>
<text x="1148" y="712" class="small">#c4a7e7</text>
<rect x="1256" y="624" width="88" height="70" rx="14" fill="#f6c177" stroke="#000"/>
<text x="1256" y="712" class="small">#f6c177</text>
<rect x="1364" y="624" width="88" height="70" rx="14" fill="#26233a" stroke="#000"/>
<text x="1364" y="712" class="small">#26233a</text>
<rect x="60" y="740" width="700" height="180" rx="22" fill="#172033" stroke="#2b3a57" stroke-width="2"/>
<text x="84" y="780" class="cardtitle">Doom Knight</text>
<rect x="84" y="814" width="88" height="70" rx="14" fill="#0d0b14" stroke="#000"/>
<text x="84" y="902" class="small">#0d0b14</text>
<rect x="192" y="814" width="88" height="70" rx="14" fill="#d4c5a9" stroke="#000"/>
<text x="192" y="902" class="small">#d4c5a9</text>
<rect x="300" y="814" width="88" height="70" rx="14" fill="#c9a227" stroke="#000"/>
<text x="300" y="902" class="small">#c9a227</text>
<rect x="408" y="814" width="88" height="70" rx="14" fill="#7b2d8b" stroke="#000"/>
<text x="408" y="902" class="small">#7b2d8b</text>
<rect x="516" y="814" width="88" height="70" rx="14" fill="#e8d5a3" stroke="#000"/>
<text x="516" y="902" class="small">#e8d5a3</text>
<rect x="624" y="814" width="88" height="70" rx="14" fill="#1a1625" stroke="#000"/>
<text x="624" y="902" class="small">#1a1625</text>
<rect x="800" y="740" width="700" height="180" rx="22" fill="#172033" stroke="#2b3a57" stroke-width="2"/>
<text x="824" y="780" class="cardtitle">Void Dragon</text>
<rect x="824" y="814" width="88" height="70" rx="14" fill="#0c1220" stroke="#000"/>
<text x="824" y="902" class="small">#0c1220</text>
<rect x="932" y="814" width="88" height="70" rx="14" fill="#e4f0ff" stroke="#000"/>
<text x="932" y="902" class="small">#e4f0ff</text>
<rect x="1040" y="814" width="88" height="70" rx="14" fill="#7ad4f0" stroke="#000"/>
<text x="1040" y="902" class="small">#7ad4f0</text>
<rect x="1148" y="814" width="88" height="70" rx="14" fill="#0d2e32" stroke="#000"/>
<text x="1148" y="902" class="small">#0d2e32</text>
<rect x="1256" y="814" width="88" height="70" rx="14" fill="#d4a012" stroke="#000"/>
<text x="1256" y="902" class="small">#d4a012</text>
<rect x="1364" y="814" width="88" height="70" rx="14" fill="#1c1e2a" stroke="#000"/>
<text x="1364" y="902" class="small">#1c1e2a</text>
</svg>