<svg xmlns="http://www.w3.org/2000/svg" width="1600" height="1000" viewBox="0 0 1600 1000">
<defs>
<style>
.title{font:700 40px "DejaVu Sans",sans-serif; fill:#e7eefc;}
.sub{font:400 22px "DejaVu Sans",sans-serif; fill:#9fb0c9;}
.cardtitle{font:700 24px "DejaVu Sans",sans-serif; fill:#e7eefc;}
.body{font:400 20px "DejaVu Sans",sans-serif; fill:#e7eefc;}
.small{font:400 16px "DejaVu Sans",sans-serif; fill:#9fb0c9;}
</style>
</defs>
<rect width="100%" height="100%" fill="#0b1020"/>
<rect x="24" y="24" width="1552" height="952" rx="24" fill="#121a2b" stroke="#2b3a57" stroke-width="2"/>
<text x="60" y="80" class="title">Cursor examples</text>
<text x="60" y="120" class="sub">Cursor themes mostly vary by accent color; shape family is similar across Catppuccin variants</text>
<rect x="60" y="190" width="320" height="250" rx="22" fill="#172033" stroke="#2b3a57" stroke-width="2"/>
<text x="84" y="230" class="cardtitle">Teal</text>
<text x="84" y="258" class="small">catppuccin-macchiato-teal-cursors</text>
<polygon points="142,300 214,360 190,364 210,410 184,422 164,378 146,395" fill="#7ad4f0" stroke="#000"/>
<rect x="430" y="190" width="320" height="250" rx="22" fill="#172033" stroke="#2b3a57" stroke-width="2"/>
<text x="454" y="230" class="cardtitle">Mauve</text>
<text x="454" y="258" class="small">catppuccin-macchiato-mauve-cursors</text>
<polygon points="512,300 584,360 560,364 580,410 554,422 534,378 516,395" fill="#c4a7e7" stroke="#000"/>
<rect x="800" y="190" width="320" height="250" rx="22" fill="#172033" stroke="#2b3a57" stroke-width="2"/>
<text x="824" y="230" class="cardtitle">Yellow</text>
<text x="824" y="258" class="small">catppuccin-macchiato-yellow-cursors</text>
<polygon points="882,300 954,360 930,364 950,410 924,422 904,378 886,395" fill="#f9e2af" stroke="#000"/>
<rect x="1170" y="190" width="320" height="250" rx="22" fill="#172033" stroke="#2b3a57" stroke-width="2"/>
<text x="1194" y="230" class="cardtitle">Red</text>
<text x="1194" y="258" class="small">catppuccin-macchiato-red-cursors</text>
<polygon points="1252,300 1324,360 1300,364 1320,410 1294,422 1274,378 1256,395" fill="#f38ba8" stroke="#000"/>
<rect x="60" y="510" width="320" height="250" rx="22" fill="#172033" stroke="#2b3a57" stroke-width="2"/>
<text x="84" y="550" class="cardtitle">Green</text>
<text x="84" y="578" class="small">catppuccin-macchiato-green-cursors</text>
<polygon points="142,620 214,680 190,684 210,730 184,742 164,698 146,715" fill="#a6e3a1" stroke="#000"/>
<rect x="430" y="510" width="320" height="250" rx="22" fill="#172033" stroke="#2b3a57" stroke-width="2"/>
<text x="454" y="550" class="cardtitle">Blue</text>
<text x="454" y="578" class="small">catppuccin-macchiato-blue-cursors</text>
<polygon points="512,620 584,680 560,684 580,730 554,742 534,698 516,715" fill="#89b4fa" stroke="#000"/>
<rect x="800" y="510" width="320" height="250" rx="22" fill="#172033" stroke="#2b3a57" stroke-width="2"/>
<text x="824" y="550" class="cardtitle">Pink</text>
<text x="824" y="578" class="small">catppuccin-macchiato-pink-cursors</text>
<polygon points="882,620 954,680 930,684 950,730 924,742 904,698 886,715" fill="#f5c2e7" stroke="#000"/>
<rect x="1170" y="510" width="320" height="250" rx="22" fill="#172033" stroke="#2b3a57" stroke-width="2"/>
<text x="1194" y="550" class="cardtitle">Sapphire</text>
<text x="1194" y="578" class="small">catppuccin-macchiato-sapphire-cursors</text>
<polygon points="1252,620 1324,680 1300,684 1320,730 1294,742 1274,698 1256,715" fill="#74c7ec" stroke="#000"/>
</svg>