<svg xmlns="http://www.w3.org/2000/svg" width="1600" height="1000" viewBox="0 0 1600 1000">
<defs>
<style>
.title{font:700 40px "DejaVu Sans",sans-serif; fill:#e7eefc;}
.sub{font:400 22px "DejaVu Sans",sans-serif; fill:#9fb0c9;}
.cardtitle{font:700 24px "DejaVu Sans",sans-serif; fill:#e7eefc;}
.body{font:400 20px "DejaVu Sans",sans-serif; fill:#e7eefc;}
.small{font:400 16px "DejaVu Sans",sans-serif; fill:#9fb0c9;}
</style>
</defs>
<rect width="100%" height="100%" fill="#0b1020"/>
<rect x="24" y="24" width="1552" height="952" rx="24" fill="#121a2b" stroke="#2b3a57" stroke-width="2"/>
<text x="60" y="80" class="title">Kvantum examples</text>
<text x="60" y="120" class="sub">Kvantum changes the actual Qt widget renderer: buttons, menus, scrollbars, inputs</text>
<rect x="60" y="180" width="700" height="180" rx="22" fill="#172033" stroke="#2b3a57" stroke-width="2"/>
<text x="84" y="220" class="cardtitle">Mocha Teal</text>
<text x="84" y="248" class="small">Qt widget style sample</text>
<rect x="94" y="278" width="136" height="44" rx="14" fill="#7ad4f0"/>
<text x="134" y="306" class="small" fill="#0b1020">Button</text>
<rect x="252" y="278" width="196" height="44" rx="14" fill="#0f1422" stroke="#7ad4f0" stroke-width="2"/>
<text x="274" y="306" class="small">Input field</text>
<rect x="480" y="282" width="240" height="12" rx="6" fill="#22304b"/>
<rect x="480" y="282" width="110" height="12" rx="6" fill="#7ad4f0"/>
<rect x="480" y="310" width="18" height="18" fill="none" stroke="#7ad4f0" stroke-width="2"/>
<path d="M 483 318 L 488 324 L 496 312" fill="none" stroke="#7ad4f0" stroke-width="2"/>
<rect x="800" y="180" width="700" height="180" rx="22" fill="#172033" stroke="#2b3a57" stroke-width="2"/>
<text x="824" y="220" class="cardtitle">Mocha Mauve</text>
<text x="824" y="248" class="small">Qt widget style sample</text>
<rect x="834" y="278" width="136" height="44" rx="14" fill="#c4a7e7"/>
<text x="874" y="306" class="small" fill="#0b1020">Button</text>
<rect x="992" y="278" width="196" height="44" rx="14" fill="#0f1422" stroke="#c4a7e7" stroke-width="2"/>
<text x="1014" y="306" class="small">Input field</text>
<rect x="1220" y="282" width="240" height="12" rx="6" fill="#22304b"/>
<rect x="1220" y="282" width="110" height="12" rx="6" fill="#c4a7e7"/>
<rect x="1220" y="310" width="18" height="18" fill="none" stroke="#c4a7e7" stroke-width="2"/>
<path d="M 1223 318 L 1228 324 L 1236 312" fill="none" stroke="#c4a7e7" stroke-width="2"/>
<rect x="60" y="400" width="700" height="180" rx="22" fill="#172033" stroke="#2b3a57" stroke-width="2"/>
<text x="84" y="440" class="cardtitle">Mocha Peach</text>
<text x="84" y="468" class="small">Qt widget style sample</text>
<rect x="94" y="498" width="136" height="44" rx="14" fill="#fab387"/>
<text x="134" y="526" class="small" fill="#0b1020">Button</text>
<rect x="252" y="498" width="196" height="44" rx="14" fill="#0f1422" stroke="#fab387" stroke-width="2"/>
<text x="274" y="526" class="small">Input field</text>
<rect x="480" y="502" width="240" height="12" rx="6" fill="#22304b"/>
<rect x="480" y="502" width="110" height="12" rx="6" fill="#fab387"/>
<rect x="480" y="530" width="18" height="18" fill="none" stroke="#fab387" stroke-width="2"/>
<path d="M 483 538 L 488 544 L 496 532" fill="none" stroke="#fab387" stroke-width="2"/>
<rect x="800" y="400" width="700" height="180" rx="22" fill="#172033" stroke="#2b3a57" stroke-width="2"/>
<text x="824" y="440" class="cardtitle">Mocha Yellow</text>
<text x="824" y="468" class="small">Qt widget style sample</text>
<rect x="834" y="498" width="136" height="44" rx="14" fill="#f9e2af"/>
<text x="874" y="526" class="small" fill="#0b1020">Button</text>
<rect x="992" y="498" width="196" height="44" rx="14" fill="#0f1422" stroke="#f9e2af" stroke-width="2"/>
<text x="1014" y="526" class="small">Input field</text>
<rect x="1220" y="502" width="240" height="12" rx="6" fill="#22304b"/>
<rect x="1220" y="502" width="110" height="12" rx="6" fill="#f9e2af"/>
<rect x="1220" y="530" width="18" height="18" fill="none" stroke="#f9e2af" stroke-width="2"/>
<path d="M 1223 538 L 1228 544 L 1236 532" fill="none" stroke="#f9e2af" stroke-width="2"/>
<rect x="60" y="620" width="700" height="180" rx="22" fill="#172033" stroke="#2b3a57" stroke-width="2"/>
<text x="84" y="660" class="cardtitle">KvArcDark</text>
<text x="84" y="688" class="small">Qt widget style sample</text>
<rect x="94" y="718" width="136" height="44" rx="14" fill="#88c0d0"/>
<text x="134" y="746" class="small" fill="#0b1020">Button</text>
<rect x="252" y="718" width="196" height="44" rx="14" fill="#0f1422" stroke="#88c0d0" stroke-width="2"/>
<text x="274" y="746" class="small">Input field</text>
<rect x="480" y="722" width="240" height="12" rx="6" fill="#22304b"/>
<rect x="480" y="722" width="110" height="12" rx="6" fill="#88c0d0"/>
<rect x="480" y="750" width="18" height="18" fill="none" stroke="#88c0d0" stroke-width="2"/>
<path d="M 483 758 L 488 764 L 496 752" fill="none" stroke="#88c0d0" stroke-width="2"/>
<rect x="800" y="620" width="700" height="180" rx="22" fill="#172033" stroke="#2b3a57" stroke-width="2"/>
<text x="824" y="660" class="cardtitle">KvDark</text>
<text x="824" y="688" class="small">Qt widget style sample</text>
<rect x="834" y="718" width="136" height="44" rx="14" fill="#9099ab"/>
<text x="874" y="746" class="small" fill="#0b1020">Button</text>
<rect x="992" y="718" width="196" height="44" rx="14" fill="#0f1422" stroke="#9099ab" stroke-width="2"/>
<text x="1014" y="746" class="small">Input field</text>
<rect x="1220" y="722" width="240" height="12" rx="6" fill="#22304b"/>
<rect x="1220" y="722" width="110" height="12" rx="6" fill="#9099ab"/>
<rect x="1220" y="750" width="18" height="18" fill="none" stroke="#9099ab" stroke-width="2"/>
<path d="M 1223 758 L 1228 764 L 1236 752" fill="none" stroke="#9099ab" stroke-width="2"/>
</svg>