<svg xmlns="http://www.w3.org/2000/svg" width="1600" height="1000" viewBox="0 0 1600 1000">
<defs>
<style>
.title{font:700 40px "DejaVu Sans",sans-serif; fill:#e7eefc;}
.sub{font:400 22px "DejaVu Sans",sans-serif; fill:#9fb0c9;}
.cardtitle{font:700 24px "DejaVu Sans",sans-serif; fill:#e7eefc;}
.body{font:400 20px "DejaVu Sans",sans-serif; fill:#e7eefc;}
.small{font:400 16px "DejaVu Sans",sans-serif; fill:#9fb0c9;}
</style>
</defs>
<rect width="100%" height="100%" fill="#0b1020"/>
<rect x="24" y="24" width="1552" height="952" rx="24" fill="#121a2b" stroke="#2b3a57" stroke-width="2"/>
<text x="60" y="80" class="title">Bar examples</text>
<text x="60" y="120" class="sub">Bars control your always-visible strip: workspaces, clock, tray, task buttons</text>
<rect x="80" y="170" width="1440" height="190" rx="22" fill="#172033" stroke="#2b3a57" stroke-width="2"/>
<text x="104" y="210" class="cardtitle">KDE Panel</text>
<text x="104" y="238" class="small">native Plasma widgets</text>
<rect x="114" y="262" width="1372" height="52" rx="18" fill="#0f1422" stroke="#d4a012" stroke-width="2"/>
<rect x="136" y="272" width="58" height="32" rx="12" fill="#26324a"/>
<text x="158" y="293" class="small" fill="#e7eefc">1</text>
<rect x="210" y="272" width="58" height="32" rx="12" fill="#d4a012"/>
<text x="232" y="293" class="small" fill="#0b1020">2</text>
<rect x="284" y="272" width="58" height="32" rx="12" fill="#26324a"/>
<text x="306" y="293" class="small" fill="#e7eefc">3</text>
<rect x="358" y="272" width="58" height="32" rx="12" fill="#26324a"/>
<text x="380" y="293" class="small" fill="#e7eefc">4</text>
<rect x="432" y="272" width="58" height="32" rx="12" fill="#26324a"/>
<text x="454" y="293" class="small" fill="#e7eefc">5</text>
<rect x="1100" y="272" width="68" height="32" rx="12" fill="#22304b"/>
<text x="1116" y="293" class="small" fill="#e7eefc">CPU</text>
<rect x="1182" y="272" width="68" height="32" rx="12" fill="#22304b"/>
<text x="1198" y="293" class="small" fill="#e7eefc">NET</text>
<rect x="1264" y="272" width="68" height="32" rx="12" fill="#22304b"/>
<text x="1280" y="293" class="small" fill="#e7eefc">VOL</text>
<rect x="1346" y="272" width="68" height="32" rx="12" fill="#22304b"/>
<text x="1362" y="293" class="small" fill="#e7eefc">BAT</text>
<rect x="1428" y="272" width="88" height="32" rx="12" fill="#22304b"/>
<text x="1444" y="293" class="small" fill="#e7eefc">23:59</text>
<rect x="80" y="410" width="1440" height="190" rx="22" fill="#172033" stroke="#2b3a57" stroke-width="2"/>
<text x="104" y="450" class="cardtitle">waybar</text>
<text x="104" y="478" class="small">Wayland CSS styling</text>
<rect x="114" y="502" width="1372" height="52" rx="18" fill="#0f1422" stroke="#7ad4f0" stroke-width="2"/>
<rect x="136" y="512" width="58" height="32" rx="12" fill="#26324a"/>
<text x="158" y="533" class="small" fill="#e7eefc">1</text>
<rect x="210" y="512" width="58" height="32" rx="12" fill="#7ad4f0"/>
<text x="232" y="533" class="small" fill="#0b1020">2</text>
<rect x="284" y="512" width="58" height="32" rx="12" fill="#26324a"/>
<text x="306" y="533" class="small" fill="#e7eefc">3</text>
<rect x="358" y="512" width="58" height="32" rx="12" fill="#26324a"/>
<text x="380" y="533" class="small" fill="#e7eefc">4</text>
<rect x="432" y="512" width="58" height="32" rx="12" fill="#26324a"/>
<text x="454" y="533" class="small" fill="#e7eefc">5</text>
<rect x="1100" y="512" width="68" height="32" rx="12" fill="#22304b"/>
<text x="1116" y="533" class="small" fill="#e7eefc">CPU</text>
<rect x="1182" y="512" width="68" height="32" rx="12" fill="#22304b"/>
<text x="1198" y="533" class="small" fill="#e7eefc">NET</text>
<rect x="1264" y="512" width="68" height="32" rx="12" fill="#22304b"/>
<text x="1280" y="533" class="small" fill="#e7eefc">VOL</text>
<rect x="1346" y="512" width="68" height="32" rx="12" fill="#22304b"/>
<text x="1362" y="533" class="small" fill="#e7eefc">BAT</text>
<rect x="1428" y="512" width="88" height="32" rx="12" fill="#22304b"/>
<text x="1444" y="533" class="small" fill="#e7eefc">23:59</text>
<rect x="80" y="650" width="1440" height="190" rx="22" fill="#172033" stroke="#2b3a57" stroke-width="2"/>
<text x="104" y="690" class="cardtitle">polybar</text>
<text x="104" y="718" class="small">classic X11 ricing</text>
<rect x="114" y="742" width="1372" height="52" rx="18" fill="#0f1422" stroke="#bb9af7" stroke-width="2"/>
<rect x="136" y="752" width="58" height="32" rx="12" fill="#26324a"/>
<text x="158" y="773" class="small" fill="#e7eefc">1</text>
<rect x="210" y="752" width="58" height="32" rx="12" fill="#bb9af7"/>
<text x="232" y="773" class="small" fill="#0b1020">2</text>
<rect x="284" y="752" width="58" height="32" rx="12" fill="#26324a"/>
<text x="306" y="773" class="small" fill="#e7eefc">3</text>
<rect x="358" y="752" width="58" height="32" rx="12" fill="#26324a"/>
<text x="380" y="773" class="small" fill="#e7eefc">4</text>
<rect x="432" y="752" width="58" height="32" rx="12" fill="#26324a"/>
<text x="454" y="773" class="small" fill="#e7eefc">5</text>
<rect x="1100" y="752" width="68" height="32" rx="12" fill="#22304b"/>
<text x="1116" y="773" class="small" fill="#e7eefc">CPU</text>
<rect x="1182" y="752" width="68" height="32" rx="12" fill="#22304b"/>
<text x="1198" y="773" class="small" fill="#e7eefc">NET</text>
<rect x="1264" y="752" width="68" height="32" rx="12" fill="#22304b"/>
<text x="1280" y="773" class="small" fill="#e7eefc">VOL</text>
<rect x="1346" y="752" width="68" height="32" rx="12" fill="#22304b"/>
<text x="1362" y="773" class="small" fill="#e7eefc">BAT</text>
<rect x="1428" y="752" width="88" height="32" rx="12" fill="#22304b"/>
<text x="1444" y="773" class="small" fill="#e7eefc">23:59</text>
</svg>