<svg xmlns="http://www.w3.org/2000/svg" width="1600" height="1000" viewBox="0 0 1600 1000">
<defs>
<style>
.title{font:700 40px "DejaVu Sans",sans-serif; fill:#e7eefc;}
.sub{font:400 22px "DejaVu Sans",sans-serif; fill:#9fb0c9;}
.cardtitle{font:700 24px "DejaVu Sans",sans-serif; fill:#e7eefc;}
.body{font:400 20px "DejaVu Sans",sans-serif; fill:#e7eefc;}
.small{font:400 16px "DejaVu Sans",sans-serif; fill:#9fb0c9;}
</style>
</defs>
<rect width="100%" height="100%" fill="#0b1020"/>
<rect x="24" y="24" width="1552" height="952" rx="24" fill="#121a2b" stroke="#2b3a57" stroke-width="2"/>
<text x="60" y="80" class="title">Launcher examples</text>
<text x="60" y="120" class="sub">Launchers define app search and command-runner appearance</text>
<rect x="70" y="220" width="460" height="520" rx="22" fill="#172033" stroke="#2b3a57" stroke-width="2"/>
<text x="94" y="260" class="cardtitle">rofi</text>
<text x="94" y="288" class="small">most common and scriptable</text>
<rect x="104" y="320" width="392" height="60" rx="18" fill="#0f1422" stroke="#7ad4f0" stroke-width="2"/>
<text x="124" y="358" class="body">&gt; firefox</text>
<rect x="108" y="410" width="384" height="46" rx="12" fill="#7ad4f0"/>
<text x="128" y="440" class="body" fill="#0b1020">firefox</text>
<rect x="108" y="468" width="384" height="46" rx="12" fill="#22304b"/>
<text x="128" y="498" class="body" fill="#e7eefc">files</text>
<rect x="108" y="526" width="384" height="46" rx="12" fill="#22304b"/>
<text x="128" y="556" class="body" fill="#e7eefc">foot</text>
<rect x="108" y="584" width="384" height="46" rx="12" fill="#22304b"/>
<text x="128" y="614" class="body" fill="#e7eefc">font manager</text>
<rect x="108" y="642" width="384" height="46" rx="12" fill="#22304b"/>
<text x="128" y="672" class="body" fill="#e7eefc">ferdium</text>
<rect x="570" y="220" width="460" height="520" rx="22" fill="#172033" stroke="#2b3a57" stroke-width="2"/>
<text x="594" y="260" class="cardtitle">wofi</text>
<text x="594" y="288" class="small">Wayland-native equivalent</text>
<rect x="604" y="320" width="392" height="60" rx="18" fill="#0f1422" stroke="#7aa2f7" stroke-width="2"/>
<text x="624" y="358" class="body">&gt; firefox</text>
<rect x="608" y="410" width="384" height="46" rx="12" fill="#7aa2f7"/>
<text x="628" y="440" class="body" fill="#0b1020">firefox</text>
<rect x="608" y="468" width="384" height="46" rx="12" fill="#22304b"/>
<text x="628" y="498" class="body" fill="#e7eefc">files</text>
<rect x="608" y="526" width="384" height="46" rx="12" fill="#22304b"/>
<text x="628" y="556" class="body" fill="#e7eefc">foot</text>
<rect x="608" y="584" width="384" height="46" rx="12" fill="#22304b"/>
<text x="628" y="614" class="body" fill="#e7eefc">font manager</text>
<rect x="608" y="642" width="384" height="46" rx="12" fill="#22304b"/>
<text x="628" y="672" class="body" fill="#e7eefc">ferdium</text>
<rect x="1070" y="220" width="460" height="520" rx="22" fill="#172033" stroke="#2b3a57" stroke-width="2"/>
<text x="1094" y="260" class="cardtitle">dmenu</text>
<text x="1094" y="288" class="small">ultra-minimal classic</text>
<rect x="1104" y="320" width="392" height="60" rx="18" fill="#0f1422" stroke="#d4a012" stroke-width="2"/>
<text x="1124" y="358" class="body">&gt; firefox</text>
<rect x="1108" y="410" width="384" height="46" rx="12" fill="#d4a012"/>
<text x="1128" y="440" class="body" fill="#0b1020">firefox</text>
<rect x="1108" y="468" width="384" height="46" rx="12" fill="#22304b"/>
<text x="1128" y="498" class="body" fill="#e7eefc">files</text>
<rect x="1108" y="526" width="384" height="46" rx="12" fill="#22304b"/>
<text x="1128" y="556" class="body" fill="#e7eefc">foot</text>
<rect x="1108" y="584" width="384" height="46" rx="12" fill="#22304b"/>
<text x="1128" y="614" class="body" fill="#e7eefc">font manager</text>
<rect x="1108" y="642" width="384" height="46" rx="12" fill="#22304b"/>
<text x="1128" y="672" class="body" fill="#e7eefc">ferdium</text>
</svg>