<svg xmlns="http://www.w3.org/2000/svg" width="1600" height="1000" viewBox="0 0 1600 1000">
<defs>
<style>
.title{font:700 40px "DejaVu Sans",sans-serif; fill:#e7eefc;}
.sub{font:400 22px "DejaVu Sans",sans-serif; fill:#9fb0c9;}
.cardtitle{font:700 24px "DejaVu Sans",sans-serif; fill:#e7eefc;}
.body{font:400 20px "DejaVu Sans",sans-serif; fill:#e7eefc;}
.small{font:400 16px "DejaVu Sans",sans-serif; fill:#9fb0c9;}
</style>
</defs>
<rect width="100%" height="100%" fill="#0b1020"/>
<rect x="24" y="24" width="1552" height="952" rx="24" fill="#121a2b" stroke="#2b3a57" stroke-width="2"/>
<text x="60" y="80" class="title">Notification examples</text>
<text x="60" y="120" class="sub">Notification daemons affect popup placement, urgency colors, borders, and density</text>
<rect x="70" y="220" width="460" height="520" rx="22" fill="#172033" stroke="#2b3a57" stroke-width="2"/>
<text x="94" y="260" class="cardtitle">dunst</text>
<text x="94" y="288" class="small">simple and widely used</text>
<rect x="118" y="330" width="364" height="86" rx="18" fill="#0f1422" stroke="#2a8060" stroke-width="2"/>
<text x="138" y="366" class="body">Low notification</text>
<text x="138" y="390" class="small">Border, bg, and urgency styling</text>
<rect x="118" y="450" width="364" height="86" rx="18" fill="#0f1422" stroke="#7ad4f0" stroke-width="2"/>
<text x="138" y="486" class="body">Normal notification</text>
<text x="138" y="510" class="small">Border, bg, and urgency styling</text>
<rect x="118" y="570" width="364" height="86" rx="18" fill="#0f1422" stroke="#cc3090" stroke-width="2"/>
<text x="138" y="606" class="body">Critical notification</text>
<text x="138" y="630" class="small">Border, bg, and urgency styling</text>
<rect x="570" y="220" width="460" height="520" rx="22" fill="#172033" stroke="#2b3a57" stroke-width="2"/>
<text x="594" y="260" class="cardtitle">mako</text>
<text x="594" y="288" class="small">Wayland-native minimal</text>
<rect x="618" y="330" width="364" height="86" rx="18" fill="#0f1422" stroke="#2a8060" stroke-width="2"/>
<text x="638" y="366" class="body">Low notification</text>
<text x="638" y="390" class="small">Border, bg, and urgency styling</text>
<rect x="618" y="450" width="364" height="86" rx="18" fill="#0f1422" stroke="#7aa2f7" stroke-width="2"/>
<text x="638" y="486" class="body">Normal notification</text>
<text x="638" y="510" class="small">Border, bg, and urgency styling</text>
<rect x="618" y="570" width="364" height="86" rx="18" fill="#0f1422" stroke="#cc3090" stroke-width="2"/>
<text x="638" y="606" class="body">Critical notification</text>
<text x="638" y="630" class="small">Border, bg, and urgency styling</text>
<rect x="1070" y="220" width="460" height="520" rx="22" fill="#172033" stroke="#2b3a57" stroke-width="2"/>
<text x="1094" y="260" class="cardtitle">swaync</text>
<text x="1094" y="288" class="small">notification center style</text>
<rect x="1118" y="330" width="364" height="86" rx="18" fill="#0f1422" stroke="#2a8060" stroke-width="2"/>
<text x="1138" y="366" class="body">Low notification</text>
<text x="1138" y="390" class="small">Border, bg, and urgency styling</text>
<rect x="1118" y="450" width="364" height="86" rx="18" fill="#0f1422" stroke="#bb9af7" stroke-width="2"/>
<text x="1138" y="486" class="body">Normal notification</text>
<text x="1138" y="510" class="small">Border, bg, and urgency styling</text>
<rect x="1118" y="570" width="364" height="86" rx="18" fill="#0f1422" stroke="#cc3090" stroke-width="2"/>
<text x="1138" y="606" class="body">Critical notification</text>
<text x="1138" y="630" class="small">Border, bg, and urgency styling</text>
</svg>